# xmcd CD database file
#
# Track frame offsets:
#	150
#	34301
#	62836
#	91471
#	117203
#	150752
#	181752
#	226334
#	246216
#	280166
#
# Disc length: 4036 seconds
#
# Revision: 0
# Processed by: cddbd v1.5.2PL0 Copyright (c) Steve Scherf et al.
# Submitted via: CDex 1.77
#
DISCID=790fc20a
DTITLE=Gendrickson Mena Quintet - All I missed
DYEAR=2008
DGENRE=Jazz
TTITLE0=From Milan to New Orleans
TTITLE1=Mind your step
TTITLE2=Song for Giulio
TTITLE3=En Ravenna
TTITLE4=A kiss forever
TTITLE5=Para ti Chet
TTITLE6=My jungle
TTITLE7=All I missed
TTITLE8=Volando
TTITLE9=Funky for Gio
EXTD=YEAR: 2008
EXTT0=
EXTT1=
EXTT2=
EXTT3=
EXTT4=
EXTT5=
EXTT6=
EXTT7=
EXTT8=
EXTT9=
PLAYORDER=
